<?xml version="1.0" encoding="UTF-8" standalone="no"?>
<svg
   xmlns:dc="http://purl.org/dc/elements/1.1/"
   xmlns:cc="http://creativecommons.org/ns#"
   xmlns:rdf="http://www.w3.org/1999/02/22-rdf-syntax-ns#"
   xmlns:svg="http://www.w3.org/2000/svg"
   xmlns="http://www.w3.org/2000/svg"
   viewBox="0 0 178.66612 60.000519"
   height="60.000519"
   width="178.66612"
   xml:space="preserve"
   id="svg2"
   version="1.1"><metadata
     id="metadata8"><rdf:RDF><cc:Work
         rdf:about=""><dc:format>image/svg+xml</dc:format><dc:type
           rdf:resource="http://purl.org/dc/dcmitype/StillImage" /></cc:Work></rdf:RDF></metadata><defs
     id="defs6"><clipPath
       id="clipPath22"
       clipPathUnits="userSpaceOnUse"><path
         id="path20"
         d="m 526.379,37.5 h 813.617 v 375 H 526.379 Z" /></clipPath></defs><g
     transform="matrix(1.3333333,0,0,-1.3333333,0,59.999998)"
     id="g10"><g
       transform="scale(0.1)"
       id="g12"><path
         id="path14"
         style="fill:#426cb4;fill-opacity:1;fill-rule:nonzero;stroke:none"
         d="m 118.465,217.117 c -5.199,0 -10.117,-1.16 -14.555,-3.219 2.363,-2.183 3.856,-5.261 3.856,-8.714 0,-6.594 -5.364,-11.938 -11.9887,-11.942 -3.4687,0 -6.5585,1.485 -8.7617,3.828 -2.1172,-4.539 -3.2187,-9.48 -3.2265,-14.484 0,-19.074 15.5273,-34.523 34.6759,-34.523 19.152,0 34.683,15.449 34.683,34.523 0,9.16 -3.652,17.941 -10.156,24.418 -6.508,6.473 -15.324,10.113 -24.527,10.113 z m 261.043,65.988 c 21.211,24.915 36.344,54.375 44.219,86.083 -43.75,-46.149 -120.145,-76.75 -207.145,-76.75 -87.004,0 -163.4023,30.601 -207.15231,76.75 C 17.4375,336.984 32.9258,307.102 54.6602,281.953 21.7969,260.98 0,224.332 0,182.59 0,117.445 53.043,64.6367 118.473,64.6367 c 41.738,0 78.418,21.5117 99.519,53.9763 21.102,-32.4646 57.774,-53.9763 99.524,-53.9763 65.429,0 118.464,52.8043 118.464,117.9533 -0.007,42.512 -22.597,79.75 -56.472,100.515 z M 118.465,103.129 c -44.0783,0 -79.8127,35.574 -79.8127,79.461 0,43.887 35.7344,79.473 79.8127,79.473 44.082,0 79.824,-35.59 79.824,-79.473 0.004,-43.887 -35.742,-79.461 -79.824,-79.461 z m 199.047,0 c -44.094,0 -79.821,35.574 -79.821,79.461 0,43.887 35.735,79.473 79.821,79.473 44.078,0 79.812,-35.59 79.812,-79.473 0,-43.887 -35.738,-79.461 -79.812,-79.461 z m 22.679,90.117 c -6.625,0.008 -11.992,5.348 -11.992,11.945 0,3.454 1.496,6.528 3.848,8.711 -4.555,2.118 -9.52,3.223 -14.543,3.223 -12.488,0.152 -24.098,-6.398 -30.387,-17.145 -6.289,-10.746 -6.289,-24.023 0,-34.765 6.289,-10.746 17.899,-17.297 30.387,-17.145 19.152,0 34.676,15.457 34.676,34.524 0,5.008 -1.106,9.953 -3.239,14.488 -2.25,-2.441 -5.421,-3.836 -8.75,-3.836 z M 217.984,-0.00390625 182.758,59.5352 217.984,97.2227 253.211,59.5352 Z M 207.805,334.977 126.719,366.078 v -49.82 c 28.039,-7.664 58.453,-11.758 89.863,-11.758 24.965,0 49.301,2.598 72.305,7.496 v 54.078 z m 0,10.882 L 61.793,401.863 207.805,450 353.828,401.863 Z" /><g
         id="g16"><g
           clip-path="url(#clipPath22)"
           id="g18"><path
             id="path24"
             style="fill:#426cb4;fill-opacity:1;fill-rule:nonzero;stroke:none"
             d="m 708.801,388.914 v 0 -23.586 c -23.317,20.735 -50.219,31.102 -80.711,31.102 v 0 0 c -24.414,0 -44.317,-6.25 -59.711,-18.75 v 0 0 c -15.445,-12.5 -23.168,-29.293 -23.168,-50.375 v 0 0 c 0,-24.254 13.453,-45.137 40.355,-62.649 v 0 l 78.02,-50.89 v 0 c 21.523,-13.942 36.598,-27.434 45.215,-40.477 v 0 0 c 8.621,-13.047 12.929,-28.5 12.929,-46.355 v 0 0 c 0,-24.602 -9.589,-45.6606 -28.773,-63.1723 v 0 0 C 673.727,46.2539 647.445,37.5 614.113,37.5 v 0 0 c -31.238,0 -60.484,8.5781 -87.734,25.7422 v 0 23.5117 0 C 552.234,64.6328 581.48,53.5703 614.113,53.5703 v 0 0 c 28.352,0 50.496,7.2422 66.438,21.7266 v 0 0 c 15.945,14.4336 23.914,31.6441 23.914,51.6371 v 0 0 c 0,26.785 -16.488,50.718 -49.473,71.8 v 0 l -76.375,49.852 v 0 c -33.73,21.43 -50.594,47.668 -50.594,78.719 v 0 0 c 0,23.215 8.692,43.23 26.082,60.047 v 0 0 c 17.387,16.765 42.598,25.148 75.629,25.148 v 0 0 c 30.84,0 57.196,-7.863 79.067,-23.586 z M 1073.05,90.5508 v 0 -20.3867 C 1040.77,48.3867 1004.54,37.5 964.387,37.5 v 0 0 c -53.457,0 -98.199,17.9531 -134.219,53.8672 v 0 0 C 794.098,127.23 776.063,171.773 776.063,225 v 0 0 c 0,53.223 18.035,97.766 54.105,133.629 v 0 0 c 36.02,35.914 80.762,53.871 134.219,53.871 v 0 0 c 40.153,0 76.383,-10.887 108.663,-32.664 v 0 -20.387 0 c -30.84,25 -67.06,37.5 -108.663,37.5 v 0 0 c -48.426,0 -89.055,-16.519 -121.887,-49.554 v 0 0 C 809.664,314.359 793.25,273.563 793.25,225 v 0 0 c 0,-48.562 16.34,-89.359 49.023,-122.398 v 0 0 c 32.633,-33.0356 73.34,-49.5512 122.114,-49.5512 v 0 0 c 41.603,0 77.823,12.5 108.663,37.5 z M 1340,57.2891 V 42.8555 H 1154.88 V 407.145 h 16.14 V 57.2891 H 1340" /></g></g></g></g></svg>